# xmcd
#
# Track frame offsets: 
#        150
#        14638
#        31215
#        48040
#        66885
#        80178
#        94953
#        110342
#        127218
#        142944
#        158472
#
# Disc length: 2307 seconds
#
# Revision: 6
# Processed by: cddbd v1.5.2PL0 Copyright (c) Steve Scherf et al.
# Submitted via: ExactAudioCopy v1.4
#
DISCID=8f09010b
DTITLE=TheBlackKeys,Akron,OH - El Camino
DYEAR=2011
DGENRE=Blues
TTITLE0=Lonely Boy
TTITLE1=Dead And Gone
TTITLE2=Gold On The Ceiling
TTITLE3=Little Black Submarines
TTITLE4=Money Maker
TTITLE5=Run Right Back
TTITLE6=Sister
TTITLE7=Hell Of A Season
TTITLE8=Stop Stop
TTITLE9=Nova Baby
TTITLE10=Mind Eraser
EXTD=
EXTT0=
EXTT1=
EXTT2=
EXTT3=
EXTT4=
EXTT5=
EXTT6=
EXTT7=
EXTT8=
EXTT9=
EXTT10=
PLAYORDER=
